<svg width="20" height="20" viewBox="0 0 20 20" fill="none" xmlns="http://www.w3.org/2000/svg">
<path fill-rule="evenodd" clip-rule="evenodd" d="M5.41675 15.0001C5.41675 14.5398 5.78984 14.1667 6.25008 14.1667H16.2501C16.7103 14.1667 17.0834 14.5398 17.0834 15.0001C17.0834 15.4603 16.7103 15.8334 16.2501 15.8334H6.25008C5.78984 15.8334 5.41675 15.4603 5.41675 15.0001Z" fill="#252D38"/>
<path fill-rule="evenodd" clip-rule="evenodd" d="M2.91675 11.6667C2.91675 11.2065 3.28984 10.8334 3.75008 10.8334H16.2501C16.7103 10.8334 17.0834 11.2065 17.0834 11.6667C17.0834 12.127 16.7103 12.5001 16.2501 12.5001H3.75008C3.28984 12.5001 2.91675 12.127 2.91675 11.6667Z" fill="#252D38"/>
<path fill-rule="evenodd" clip-rule="evenodd" d="M5.41675 8.33342C5.41675 7.87318 5.78984 7.50008 6.25008 7.50008H16.2501C16.7103 7.50008 17.0834 7.87318 17.0834 8.33342C17.0834 8.79365 16.7103 9.16675 16.2501 9.16675H6.25008C5.78984 9.16675 5.41675 8.79365 5.41675 8.33342Z" fill="#252D38"/>
<path fill-rule="evenodd" clip-rule="evenodd" d="M2.91675 5.00008C2.91675 4.53984 3.28984 4.16675 3.75008 4.16675H16.2501C16.7103 4.16675 17.0834 4.53984 17.0834 5.00008C17.0834 5.46032 16.7103 5.83341 16.2501 5.83341H3.75008C3.28984 5.83341 2.91675 5.46032 2.91675 5.00008Z" fill="#252D38"/>
</svg>
