<svg width="20" height="20" viewBox="0 0 20 20" fill="none" xmlns="http://www.w3.org/2000/svg">
<path fill-rule="evenodd" clip-rule="evenodd" d="M3.81677 4.10563C3.36721 4.10563 3.00277 4.47453 3.00277 4.92958V16.0211C3.00277 16.4762 3.36721 16.8451 3.81677 16.8451H7.41714C7.83212 16.8451 8.16853 17.1856 8.16853 17.6056C8.16853 18.0257 7.83212 18.3662 7.41714 18.3662H3.81677C2.53725 18.3662 1.5 17.3163 1.5 16.0211V4.92958C1.5 3.63443 2.53725 2.58451 3.81677 2.58451H14.7744C16.054 2.58451 17.0912 3.63443 17.0912 4.92958V8.25704C17.0912 8.67709 16.7548 9.0176 16.3398 9.0176C15.9248 9.0176 15.5884 8.67709 15.5884 8.25704V4.92958C15.5884 4.47453 15.224 4.10563 14.7744 4.10563H3.81677Z" fill="#252D38"/>
<path fill-rule="evenodd" clip-rule="evenodd" d="M1.5 7.59155C1.5 7.1715 1.83641 6.83099 2.25138 6.83099H16.3398C16.7548 6.83099 17.0912 7.1715 17.0912 7.59155C17.0912 8.0116 16.7548 8.35211 16.3398 8.35211H2.25138C1.83641 8.35211 1.5 8.0116 1.5 7.59155Z" fill="#252D38"/>
<path fill-rule="evenodd" clip-rule="evenodd" d="M12.4264 1C12.8413 1 13.1777 1.34052 13.1777 1.76056V4.92958C13.1777 5.34963 12.8413 5.69014 12.4264 5.69014C12.0114 5.69014 11.675 5.34963 11.675 4.92958V1.76056C11.675 1.34052 12.0114 1 12.4264 1Z" fill="#252D38"/>
<path fill-rule="evenodd" clip-rule="evenodd" d="M6.16484 1C6.57982 1 6.91622 1.34052 6.91622 1.76056V4.92958C6.91622 5.34963 6.57982 5.69014 6.16484 5.69014C5.74986 5.69014 5.41345 5.34963 5.41345 4.92958V1.76056C5.41345 1.34052 5.74986 1 6.16484 1Z" fill="#252D38"/>
<path fill-rule="evenodd" clip-rule="evenodd" d="M13.7569 10.919C11.9673 10.919 10.5166 12.3875 10.5166 14.1989C10.5166 16.0104 11.9673 17.4789 13.7569 17.4789C15.5465 17.4789 16.9972 16.0104 16.9972 14.1989C16.9972 12.3875 15.5465 10.919 13.7569 10.919ZM9.01379 14.1989C9.01379 11.5474 11.1373 9.39789 13.7569 9.39789C16.3764 9.39789 18.5 11.5474 18.5 14.1989C18.5 16.8505 16.3764 19 13.7569 19C11.1373 19 9.01379 16.8505 9.01379 14.1989Z" fill="#252D38"/>
<path fill-rule="evenodd" clip-rule="evenodd" d="M16.1491 12.4003C16.4426 12.6972 16.4429 13.1787 16.1496 13.4759L13.6657 15.9923C13.5248 16.1351 13.3336 16.2153 13.1342 16.2153C12.9349 16.2154 12.7437 16.1352 12.6027 15.9924L11.3573 14.7311C11.0639 14.434 11.0641 13.9524 11.3576 13.6555C11.6511 13.3585 12.1269 13.3587 12.4202 13.6558L13.1341 14.3788L15.0865 12.4008C15.3798 12.1036 15.8555 12.1034 16.1491 12.4003Z" fill="#252D38"/>
</svg>
