<svg width="20" height="20" viewBox="0 0 20 20" fill="none" xmlns="http://www.w3.org/2000/svg">
<path fill-rule="evenodd" clip-rule="evenodd" d="M9.99841 1C7.32297 1 5.15409 3.16887 5.15409 5.84431V8.17937H4.17187C2.79278 8.17937 1.6748 9.29735 1.6748 10.6764V16.5029C1.6748 17.882 2.79278 19 4.17187 19H15.8249C17.204 19 18.3219 17.882 18.3219 16.5029V10.6764C18.3219 9.29735 17.204 8.17937 15.8249 8.17937H14.8427V5.84431C14.8427 3.16887 12.6738 1 9.99841 1ZM13.1447 8.17937V5.84431C13.1447 4.10666 11.7361 2.69801 9.99841 2.69801C8.26075 2.69801 6.8521 4.10666 6.8521 5.84431V8.17937H13.1447ZM4.17183 9.84407C3.71213 9.84407 3.33948 10.2167 3.33948 10.6764V16.5029C3.33948 16.9626 3.71213 17.3353 4.17183 17.3353H15.8248C16.2845 17.3353 16.6572 16.9626 16.6572 16.5029V10.6764C16.6572 10.2167 16.2845 9.84407 15.8248 9.84407H4.17183Z" fill="#252D38"/>
</svg>
