<svg width="20" height="20" viewBox="0 0 20 20" fill="none" xmlns="http://www.w3.org/2000/svg">
<g clip-path="url(#clip0_16752_4537)">
<path fill-rule="evenodd" clip-rule="evenodd" d="M10 0.866699C10.3045 0.866699 10.5826 1.03956 10.7174 1.3126L13.1064 6.15254L18.449 6.93344C18.7503 6.97748 19.0004 7.18868 19.0943 7.47829C19.1882 7.76789 19.1096 8.0857 18.8915 8.29812L15.89 11.2216C15.5735 11.5299 15.067 11.5232 14.7587 11.2067C14.4505 10.8902 14.4571 10.3837 14.7736 10.0754L16.6146 8.28232L12.4593 7.67495C12.199 7.63691 11.9741 7.47334 11.8576 7.23747L10 3.4741L9.42986 4.62913C9.2343 5.02532 8.75459 5.18796 8.3584 4.9924C7.96221 4.79683 7.79957 4.31712 7.99513 3.92093L9.28263 1.3126C9.41741 1.03956 9.6955 0.866699 10 0.866699ZM3.37205 8.26933C3.72602 8.14509 3.95412 7.78402 3.89783 7.39891C3.83393 6.96173 3.42772 6.65913 2.99054 6.72303L1.55096 6.93344C1.24971 6.97748 0.999567 7.18868 0.905665 7.47829C0.811763 7.76789 0.890381 8.0857 1.10848 8.29812L4.97371 12.0629L4.06151 17.3815C4.01003 17.6816 4.13343 17.985 4.37981 18.1639C4.62619 18.3429 4.95282 18.3665 5.22236 18.2248L10 15.7122L11.3777 16.4368C11.7688 16.6424 12.2525 16.4921 12.4581 16.1011C12.6638 15.71 12.5135 15.2263 12.1224 15.0207L10.3724 14.1003C10.1392 13.9777 9.86074 13.9777 9.62763 14.1003L5.91254 16.054L6.62182 11.9186C6.66634 11.659 6.58021 11.3941 6.39151 11.2103L3.37205 8.26933Z" fill="#252D38"/>
<path fill-rule="evenodd" clip-rule="evenodd" d="M0.267823 0.267518C0.580242 -0.0449017 1.08677 -0.0449017 1.39919 0.267518L19.7325 18.6008C20.0449 18.9133 20.0449 19.4198 19.7325 19.7322C19.4201 20.0446 18.9136 20.0446 18.6012 19.7322L0.267823 1.39889C-0.0445966 1.08647 -0.0445966 0.579937 0.267823 0.267518Z" fill="#252D38"/>
</g>
<defs>
<clipPath id="clip0_16752_4537">
<rect width="20" height="20" fill="white"/>
</clipPath>
</defs>
</svg>
